<svg width="461" height="192" viewBox="0 0 461 192" fill="none" xmlns="http://www.w3.org/2000/svg">
<g clip-path="url(#clip0_229_197)">
<g clip-path="url(#clip1_229_197)">
<path d="M234.181 192C225.171 192 213.354 190.514 198.728 187.541L169.417 180.775L164.913 179.647L160.115 178.366L159.823 178.263C155.552 176.828 150.228 173.137 149.292 163.501L148.356 157.965L129.869 154.941L129.05 154.633C124.662 153.044 121.386 150.225 119.455 146.535H0.400024L21.2859 46.4291H118.695C120.508 42.4823 123.784 39.5094 128.348 37.7666L129.225 37.4591L147.829 34.3836L148.824 28.8479C149.877 19.314 155.084 15.5722 159.238 14.137L159.589 14.0345L164.562 12.753L168.832 11.6254L198.084 4.85941H198.201C212.769 1.88649 224.703 0.400024 233.654 0.400024H234.415C243.366 0.400024 255.184 1.88649 269.751 4.85941L299.12 11.6254L303.683 12.753L308.422 14.0345L308.715 14.137C312.986 15.6235 318.309 19.3652 319.187 28.8991L320.181 34.4349L338.786 37.5103L339.663 37.8691C344.227 39.6119 347.561 42.5848 349.316 46.5316H461L440.173 146.586H349.55C347.737 150.277 344.344 153.096 339.956 154.685L339.195 154.941L320.767 157.965L319.772 163.501C318.719 173.189 313.395 176.879 309.066 178.263L308.832 178.314L303.976 179.596L299.764 180.672C284.845 184.311 275.309 186.515 270.336 187.489C255.769 190.462 243.834 191.949 234.942 191.949H234.122L234.181 192Z" fill="black"/>
<path d="M313.044 40.3295L316.613 37.3053L337.557 40.6371L336.329 44.1226L313.044 40.3295Z" fill="#89A4D3"/>
<path d="M311.289 29.668C310.879 24.7473 309.066 21.6718 305.848 20.5954L301.402 19.3652L297.19 18.2888H296.956L298.418 14.9059L302.572 15.9823L307.135 17.2124L307.252 17.2637C312.049 18.8527 314.741 22.9533 315.326 29.2579L316.73 37.3053H316.788L316.73 37.3566L313.161 40.3808L311.289 29.668Z" fill="url(#paint0_linear_229_197)"/>
<path d="M163.859 16.3923L165.673 15.931L169.885 14.8546L199.196 8.13988C213.471 5.21821 225.171 3.73175 233.713 3.73175H234.474C243.074 3.73175 254.657 5.21821 268.932 8.13988L298.184 14.9059L298.535 15.0084L297.073 18.3913L268.055 11.6766C254.072 8.80622 242.781 7.37102 234.474 7.37102H233.713C225.347 7.37102 213.997 8.80622 200.015 11.6766L170.88 18.3913L166.726 19.4678L164.971 19.9291L163.859 16.3923Z" fill="url(#paint1_linear_229_197)"/>
<path d="M152.627 29.3604V29.2066C153.27 22.902 155.961 18.8527 160.642 17.2637L160.817 17.2124L163.918 16.3923L165.088 19.8265L162.221 20.5954C159.062 21.7231 157.19 24.7472 156.781 29.668V29.8217L152.627 29.3604Z" fill="url(#paint2_linear_229_197)"/>
<path d="M131.448 44.1225L130.278 40.6883H130.337L151.223 37.3053L152.685 29.2579L156.664 29.7192L154.85 40.3807L131.565 44.1225H131.507H131.448Z" fill="#D0D8ED"/>
<path d="M311.874 162.937V162.732L313.746 152.071L336.797 148.277L337.733 151.712L317.315 155.095L315.969 163.193V163.347L311.874 162.937Z" fill="#044A7B"/>
<path d="M346.742 143.152L343.817 139.615H433.562L436.955 143.152H346.801V143.254L346.742 143.152Z" fill="#02426E"/>
<path d="M436.838 143.152L433.445 139.615H433.562L451.405 53.3489L456.32 49.8634L436.955 143.152H436.838Z" fill="#075083"/>
<path d="M342.237 49.9146C341.301 47.2493 339.371 45.3015 336.387 44.1226L336.211 44.0713L337.499 40.6371H337.616L338.084 40.7908C342.179 42.3285 344.929 45.0964 346.157 48.6845L346.625 49.8634L343.817 53.4514L342.237 49.9146Z" fill="url(#paint3_linear_229_197)"/>
<path d="M451.405 53.4001H343.7L346.508 49.9146H456.261V49.9659L451.405 53.4514V53.4001Z" fill="#A4B8D9"/>
<path d="M27.8968 53.4001L24.4451 49.9146H121.444L124.369 53.2976V53.3489L124.311 53.4001H27.8968Z" fill="#B2C2DB"/>
<path d="M234.181 188.617C225.464 188.617 213.88 187.131 199.664 184.209L170.529 177.443L166.141 176.367L165.498 176.213L166.551 172.727L167.37 172.932L171.582 174.009L200.6 180.723C214.582 183.594 225.932 185.029 234.298 185.029H235.059C243.425 185.029 254.774 183.594 268.757 180.723C273.495 179.749 283.266 177.494 297.775 174.009L301.987 172.932L302.747 172.727L304.034 176.11L303.098 176.367L298.886 177.443C284.026 181.082 274.549 183.286 269.634 184.209C255.359 187.131 243.717 188.566 235.117 188.566L234.181 188.617Z" fill="#044A7B"/>
<path d="M302.513 172.881L306.316 171.805C309.475 170.728 311.406 167.755 311.874 162.886V162.835L315.969 163.245V163.296C315.267 169.601 312.518 173.65 307.779 175.188L307.662 175.239L303.8 176.315L302.513 172.881Z" fill="url(#paint4_linear_229_197)"/>
<path d="M161.402 175.188L161.285 175.136C156.547 173.547 153.855 169.549 153.212 163.142L151.866 155.043L155.376 152.019H155.493L157.307 162.732C157.834 167.704 159.589 170.779 162.748 171.805L166.609 172.83L165.556 176.315L161.402 175.188Z" fill="url(#paint5_linear_229_197)"/>
<path d="M336.68 148.277L337.031 148.226C340.073 147.099 342.062 145.202 342.881 142.485L344.051 139.564H344.109L346.976 143.1L346.859 143.562C345.631 147.304 342.822 150.071 338.669 151.558L338.259 151.712L337.733 151.814L336.68 148.277Z" fill="url(#paint6_linear_229_197)"/>
<path d="M151.808 155.095L131.097 151.712L132.209 148.277L155.435 152.071L151.808 155.146V155.095Z" fill="#004971"/>
<path d="M121.327 49.9146L121.795 48.8382C123.082 45.199 125.891 42.4823 129.869 40.8933L130.337 40.7396L131.507 44.2251H131.448C128.523 45.404 126.534 47.3005 125.715 49.9659L124.311 53.5539L121.327 49.9146Z" fill="url(#paint7_linear_229_197)"/>
<path d="M122.205 143.152H5.08032L9.93613 139.615H125.13L125.188 139.666L122.263 143.254L122.205 143.152Z" fill="#014377"/>
<path d="M131.039 151.712L130.629 151.558C126.534 150.071 123.726 147.304 122.38 143.613L122.205 143.152L125.13 139.564L126.3 142.485C127.295 145.202 129.225 147.15 132.209 148.277H132.384L131.156 151.712H131.039Z" fill="url(#paint8_linear_229_197)"/>
<path d="M5.13882 143.152L24.5036 49.9146H24.5621L28.0138 53.4001H27.8968L10.0531 139.615L5.25583 143.152H5.13882Z" fill="#C7D3E9"/>
<path d="M200.015 11.5741C214.056 8.7037 225.288 7.26849 233.713 7.26849H234.473C242.84 7.26849 254.014 8.7037 268.113 11.5741L297.248 18.2888L301.46 19.3652L305.907 20.5954C309.183 21.7231 310.996 24.7473 311.406 29.7192L313.22 40.3807L336.563 44.1738C339.605 45.404 341.535 47.3005 342.413 49.9659L343.875 53.5026H451.581L433.679 139.82H343.934L342.822 142.69C341.945 145.458 340.014 147.406 336.972 148.482L313.746 152.276L311.932 162.937C311.406 167.96 309.592 170.984 306.316 172.061L301.928 173.24L297.716 174.316C283.09 177.904 273.437 180.108 268.698 181.031C254.657 183.901 243.425 185.337 235 185.337H234.239C225.815 185.337 214.582 183.901 200.541 181.031L171.523 174.111L167.311 173.035L162.806 171.805C159.589 170.728 157.775 167.704 157.307 162.681L155.435 151.968L132.209 148.175C129.167 147.047 127.178 145.1 126.242 142.383L125.13 139.512H9.99463L27.8968 53.2463H124.369L125.774 49.7096C126.71 46.9929 128.64 45.0452 131.624 43.9175L154.967 40.1245L156.722 29.5654C157.249 24.5935 159.004 21.5693 162.221 20.4416L166.726 19.2115L170.88 18.1351L200.015 11.5741Z" fill="#2675AE"/>
<path d="M331.356 49.6584C332.76 50.6322 333.462 51.8112 333.754 53.2976H137.123C137.416 51.8112 138.293 50.581 139.639 49.6584C141.043 48.6845 142.506 48.2231 144.261 48.2231L166.843 44.8914L167.136 35.5626C167.428 31.8208 168.481 29.5142 170.119 28.6428C174.449 26.49 184.16 24.0297 199.137 21.313C214.231 18.5964 225.522 17.2637 233.303 17.2637C242.957 17.2637 255.476 18.3914 270.57 20.5442C287.946 22.902 297.599 25.4649 299.53 28.284C301.987 31.7695 303.04 37.2028 302.513 44.8914L326.558 48.3257C328.372 48.1719 329.952 48.6845 331.356 49.6584Z" fill="#FF991A" stroke="black" stroke-width="5" stroke-miterlimit="10"/>
<path d="M331.356 143.972C329.952 144.946 328.43 145.407 326.675 145.407L302.63 148.841C303.157 156.427 302.104 161.963 299.647 165.449C297.775 168.165 288.063 170.677 270.687 173.189L249.743 175.546L233.479 176.469C225.756 176.469 214.348 175.136 199.313 172.42C184.219 169.703 174.624 167.294 170.295 165.09C168.598 164.219 167.604 161.912 167.311 158.17L167.019 148.841L144.436 145.51C142.681 145.51 141.16 144.997 139.814 144.074C138.41 143.049 137.591 141.87 137.299 140.384H333.93C333.462 141.717 332.701 142.947 331.356 143.972Z" fill="#FF991A" stroke="black" stroke-width="5"/>
<path d="M309.417 76.5172C313.688 83.1294 315.852 90.0491 315.852 97.2764C315.852 104.504 313.746 111.372 309.417 117.933C305.263 124.34 299.53 129.979 291.924 134.951C284.436 139.871 275.777 143.664 266.007 146.33C255.944 149.098 245.355 150.43 234.298 150.43C223.241 150.43 212.71 149.046 202.589 146.33C192.877 143.613 184.219 139.82 176.672 134.951C169.125 130.03 163.333 124.392 159.179 117.984C154.908 111.372 152.744 104.504 152.744 97.3277C152.744 90.0491 154.85 83.1294 159.179 76.5684C163.45 70.2125 169.3 64.6255 176.789 59.6535C184.277 54.7328 192.936 50.9398 202.764 48.2231C212.827 45.404 223.416 44.02 234.473 44.02C245.531 44.02 256.061 45.404 266.183 48.2231C275.894 50.9398 284.553 54.7328 292.1 59.6023C299.53 64.5742 305.322 70.1613 309.417 76.5172Z" fill="#008CC7" stroke="black" stroke-width="6"/>
<path d="M24.9716 130.081C25.9077 130.132 74.7583 129.774 76.6889 129.722C77.3325 129.722 89.1502 129.825 89.1502 129.825C89.1502 129.825 117.525 130.337 118.636 129.979C119.748 129.62 131.682 129.927 132.443 129.927C133.204 129.927 230.905 131.465 241.728 130.44C251.966 129.466 268.172 129.569 270.863 130.337C271.74 130.03 355.576 130.696 357.156 130.337C358.677 129.979 372.952 129.62 373.361 130.132C373.829 130.645 425.605 130.132 425.605 130.132L433.328 128.902C433.328 128.902 429.174 128.236 427.302 128.133C425.839 128.082 372.776 127.877 372.484 128.133C372.191 128.39 361.31 129.312 359.379 128.133C357.448 126.954 307.428 128.748 305.965 128.543C299.764 127.775 288.472 128.697 284.26 127.928C280.048 127.159 265.832 128.851 264.369 129.056C262.848 129.21 256.939 129.364 255.359 129.056C254.482 128.902 245.355 128.39 244.478 127.928C243.6 127.467 155.786 127.775 152.276 127.467C148.766 127.159 132.794 128.338 132.794 128.338C124.779 128.851 107.52 127.313 98.5108 128.031C88.9747 128.8 79.0291 127.826 77.6835 127.365C74.4073 126.288 39.4805 127.621 38.486 127.006C37.4914 126.391 15.2015 129.107 15.2015 129.107C15.2015 129.107 21.8709 129.979 24.9716 130.081ZM33.1621 91.3306C34.0982 91.3818 238.978 92.3045 249.86 91.6381C250.913 91.5869 278.176 91.7919 278.995 91.5356C279.872 91.2793 433.796 91.8432 433.796 91.8432L442.688 89.6903C442.688 89.6903 437.364 88.2039 435.492 88.1014C434.03 88.0501 292.626 87.6913 292.626 87.6913C288.414 86.9224 274.315 88.9215 272.852 89.1265C273.613 89.024 266.183 89.6903 264.603 89.3828C263.725 89.229 252.61 88.2551 252.61 88.2551C251.732 87.7938 163.801 87.9988 160.291 87.64C156.781 87.2812 47.437 88.3064 46.501 87.6913C45.5064 87.0762 22.69 89.7929 22.69 89.7929C22.69 89.7929 30.0614 91.1255 33.1621 91.3306ZM37.3744 71.2377C38.3105 71.289 87.1611 71.4427 89.0917 71.3915C89.7352 71.3915 101.553 71.494 101.553 71.494C101.553 71.494 129.927 72.0066 131.039 71.6478C132.15 71.289 144.085 71.5452 144.846 71.5452C145.606 71.5452 242.898 71.8015 254.131 71.5452C265.071 71.289 282.447 71.699 283.266 71.4427C284.143 71.1864 367.979 72.3141 369.559 71.9553C371.08 71.5965 385.355 71.2377 385.764 71.7503C386.174 72.2628 438.008 71.2377 438.008 71.2377L445.73 70.0588C445.73 70.0588 441.577 69.3924 439.705 69.2899C438.242 69.2387 385.179 68.0085 384.887 68.2648C384.594 68.5211 375.819 69.3412 371.782 68.7773C369.442 68.4698 319.83 68.8799 318.368 68.6748C312.166 67.906 300.875 69.3412 296.663 68.5723C292.451 67.8035 278.234 69.4949 276.772 69.7C275.251 69.8537 269.342 70.0075 267.762 69.7C266.885 69.5462 257.758 69.0336 256.88 68.5723C256.003 68.1623 168.072 68.8286 164.562 68.4698C161.051 68.1623 145.08 69.3924 145.08 69.3924C137.065 69.905 119.806 68.3673 110.797 69.0849C101.26 69.8537 91.3148 68.8799 89.9693 68.4185C86.693 67.3421 51.7663 68.6748 50.7718 68.0597C49.7772 67.4447 27.4873 70.1613 27.4873 70.1613C27.4873 70.1613 34.2737 71.0839 37.3744 71.2377ZM38.486 66.2657C39.422 66.317 88.2727 65.9582 90.2033 65.9069C90.8468 65.9069 102.665 66.0094 102.665 66.0094C102.665 66.0094 131.039 66.522 132.15 66.1632C133.321 65.8044 145.197 66.0607 145.957 66.0607C146.718 66.0607 244.361 67.2909 255.242 66.5733C266.124 65.8557 283.558 66.727 284.377 66.4708C285.255 66.2145 369.091 66.8296 370.67 66.4708C372.191 66.112 386.466 66.2657 386.876 66.7783C387.344 67.2909 439.12 66.7783 439.12 66.7783L446.842 65.1381C446.842 65.1381 442.688 63.9592 440.816 63.8566C439.354 63.8054 386.291 63.6003 385.998 63.8566C385.706 64.1129 374.824 64.523 372.893 63.3441C370.963 62.1651 320.942 64.4717 319.479 64.2667C313.278 63.4978 301.987 64.933 297.775 64.1642C293.562 63.3953 279.346 64.0617 277.883 64.2667C276.362 64.4205 270.453 64.0617 268.874 63.7541C267.996 63.6003 258.87 64.1129 257.992 63.6516C257.114 63.2415 169.183 63.9079 165.673 63.5491C162.046 63.1903 146.133 63.9079 146.133 63.9079C138.118 64.4205 120.859 62.8827 111.85 63.6003C102.314 64.3692 92.3679 63.9079 91.0223 63.4466C87.7461 62.3702 52.8194 63.7029 51.8248 63.0878C50.8303 62.4727 28.5403 65.1893 28.5403 65.1893C28.5403 65.1893 35.3853 66.112 38.486 66.2657ZM39.4805 61.345C40.4166 61.3963 89.2672 61.0375 91.1978 60.9862C91.8414 60.9862 103.659 61.0887 103.659 61.0887C103.659 61.0887 132.033 61.6013 133.145 61.2425C134.315 60.8837 146.191 61.1913 146.952 61.1913C147.712 61.1913 245.355 62.4214 256.237 61.7038C267.119 60.935 284.553 61.8576 285.372 61.6013C286.249 61.2938 370.085 61.9601 371.665 61.6013C373.244 61.2425 387.461 60.8837 387.87 61.3963C388.338 61.9089 440.114 61.3963 440.114 61.3963L447.837 60.2174C447.837 60.2174 443.683 59.551 441.811 59.4485C440.348 59.3972 387.285 59.1922 386.993 59.4485C386.7 59.7048 321.937 59.551 320.415 59.346C314.214 58.5771 302.923 60.0123 298.711 59.2435C294.498 58.4746 259.747 59.7048 258.87 59.2435C258.109 58.8334 170.119 58.9872 166.668 58.6796C163.157 58.3721 147.186 59.551 147.186 59.551C139.171 60.0636 121.912 58.5259 112.903 59.2435C103.367 60.0123 93.421 59.551 92.0754 59.0897C88.7992 58.0133 48.3731 59.0384 47.203 58.9872C45.7404 58.8847 29.5934 60.4224 29.5934 60.4224C29.5934 60.4224 36.3798 61.1913 39.4805 61.345ZM24.3866 134.899C25.3226 134.951 74.1732 134.592 76.1039 134.541C76.7474 134.541 88.5652 134.643 88.5652 134.643C88.5652 134.643 116.939 135.156 118.051 134.797C119.221 134.438 131.097 134.694 131.858 134.694C132.618 134.694 230.261 135.719 241.143 135.207C258.753 134.335 257.992 134.848 270.278 135.104C271.155 135.104 354.991 135.463 356.571 135.104C358.092 134.746 372.367 134.387 372.776 134.899C373.244 135.412 425.02 134.899 425.02 134.899L432.158 133.72C432.158 133.72 428.589 133.054 426.717 132.952C425.254 132.9 372.191 132.695 371.899 132.952C371.606 133.208 360.725 134.13 358.794 132.952C356.863 131.773 306.843 133.567 305.38 133.362C299.179 132.593 287.887 133.515 283.675 132.747C279.463 131.978 265.246 133.669 263.784 133.874C256.939 134.438 244.712 133.208 243.893 132.747C243.015 132.336 155.084 132.49 151.574 132.131C148.063 131.773 132.092 133.003 132.092 133.003C124.077 133.515 103.776 131.568 94.7666 132.234C83.2413 134.079 74.2903 132.49 72.8862 132.08C69.61 131.004 41.0601 132.49 40.0656 131.926C39.071 131.363 15.026 133.823 15.026 133.823C15.026 133.823 21.2859 134.797 24.3866 134.899ZM32.1676 96.5588C33.1036 96.6101 237.984 97.5327 248.865 96.8664C249.919 96.8151 277.181 97.0201 278 96.7639C278.819 96.5076 432.801 97.0714 432.801 97.0714L441.694 94.406C441.694 94.406 436.37 92.9196 434.498 92.817C433.035 92.7658 291.632 92.407 291.632 92.407C287.419 91.6381 273.32 93.6372 271.857 93.8422C272.618 93.7397 265.188 94.406 263.608 94.0985C262.731 93.9447 251.615 93.4834 251.615 93.4834C250.738 93.0221 162.806 93.2271 159.296 92.8683C155.786 92.5095 46.4425 93.0221 45.5064 92.407C44.5119 91.7919 21.6954 94.5085 21.6954 94.5085C21.6954 94.5085 29.0669 96.3538 32.1676 96.5588ZM31.407 101.121C32.3431 101.172 237.223 102.095 248.105 101.428C249.158 101.377 276.421 101.582 277.24 101.326C278.117 101.069 432.041 101.633 432.041 101.633L440.348 99.4805C440.348 99.4805 435.609 97.994 433.737 97.8915C432.275 97.8403 290.871 97.4815 290.871 97.4815C286.659 96.7126 272.559 98.7116 271.097 98.9167C271.857 98.8141 264.427 99.4805 262.848 99.173C261.97 99.0192 250.855 98.5579 250.855 98.5579C250.035 98.0965 162.104 98.3016 158.594 97.9428C155.084 97.584 45.7404 98.0965 44.8044 97.4815C43.8098 96.8664 20.9934 99.583 20.9934 99.583C20.9934 99.583 28.3063 100.916 31.407 101.121ZM30.1784 106.4C31.1145 106.451 235.995 106.862 246.876 106.195C247.929 106.144 275.192 106.862 276.011 106.605C276.83 106.349 430.812 106.4 430.812 106.4L439.705 104.247C439.705 104.247 434.381 102.761 432.509 102.658C431.046 102.607 289.643 102.248 289.643 102.248C285.43 101.48 271.331 103.479 269.868 103.684C270.629 103.581 263.199 104.247 261.619 103.94C260.742 103.786 249.626 103.325 249.626 103.325C248.748 102.863 160.817 103.069 157.307 102.71C153.797 102.351 44.4534 102.863 43.5173 102.248C42.5227 101.633 19.7063 104.35 19.7063 104.35C19.7063 104.35 27.0777 106.195 30.1784 106.4ZM29.4179 111.475C30.3539 111.526 235.234 111.936 246.116 111.27C247.169 111.218 274.432 111.423 275.251 111.167C276.07 110.911 430.052 111.475 430.052 111.475L438.359 109.322C438.359 109.322 433.62 107.835 431.748 107.733C430.286 107.682 288.882 107.323 288.882 107.323C284.67 106.554 270.57 108.553 269.108 108.758C269.868 108.656 262.438 109.322 260.859 109.014C259.981 108.861 248.865 108.399 248.865 108.399C247.988 107.938 160.057 108.143 156.547 107.784C153.036 107.425 43.6928 107.938 42.7567 107.323C41.7622 106.708 18.9457 109.424 18.9457 109.424C18.9457 109.424 26.3172 111.27 29.4179 111.475ZM28.0138 115.729C28.9499 115.78 233.83 116.703 244.712 116.037C245.765 115.985 273.027 116.19 273.847 115.934C274.666 115.678 428.647 116.19 428.647 116.19L436.955 114.038C436.955 114.038 432.216 112.551 430.344 112.449C428.881 112.397 287.478 112.039 287.478 112.039C283.266 111.27 269.166 113.269 267.704 113.474C268.464 113.371 261.034 114.038 259.455 113.73C258.577 113.576 247.461 113.115 247.461 113.115C246.584 112.654 158.653 112.859 155.142 112.5C151.632 112.141 42.2887 112.654 41.3527 112.039C40.3581 111.423 17.5416 114.14 17.5416 114.14C17.5416 114.14 24.9131 115.524 28.0138 115.729ZM27.3118 120.804C28.2478 120.855 233.128 121.777 244.01 121.111C245.063 121.06 264.076 120.496 273.144 121.009C274.022 121.06 427.945 121.316 427.945 121.316L436.253 119.163C436.253 119.163 431.514 117.677 429.642 117.574C428.179 117.523 286.776 117.164 286.776 117.164C282.564 116.395 268.64 117.728 267.119 117.933C267.879 117.831 261.034 118.241 259.396 117.933C258.46 117.779 246.642 118.241 246.642 118.241C245.765 117.779 157.834 117.984 154.323 117.626C150.813 117.267 41.4697 117.779 40.5336 117.164C39.539 116.549 16.7226 119.266 16.7226 119.266C16.7226 119.266 24.1526 120.599 27.3118 120.804ZM35.5023 81.5404C36.4383 81.5917 241.318 82.5143 252.2 81.848C253.253 81.7967 280.516 81.4892 281.335 81.2329C282.154 80.9766 436.136 81.5404 436.136 81.5404L444.443 79.3876C444.443 79.3876 439.705 77.9012 437.832 77.7986C436.37 77.7474 295.025 77.3886 295.025 77.3886C290.813 76.6197 276.713 78.6188 275.251 78.8238C276.011 78.7213 268.581 79.3876 267.002 79.0801C266.124 78.9263 255.008 78.465 255.008 78.465C254.131 78.0549 166.141 78.26 162.631 77.9012C159.179 77.5423 49.7772 78.0549 48.8996 77.4398C47.9051 76.8247 25.0886 79.5414 25.0886 79.5414C25.0886 79.5414 32.4016 81.3867 35.5023 81.5404ZM34.7417 86.6149C35.6778 86.6662 240.558 87.0762 251.44 86.4099C252.493 86.3586 279.755 87.0762 280.574 86.8199C281.452 86.5636 435.375 87.1275 435.375 87.1275L443.683 84.4621C443.683 84.4621 438.944 82.9756 437.072 82.8731C435.609 82.8219 294.206 82.4631 294.206 82.4631C289.994 81.6942 275.894 83.6932 274.432 83.8983C275.192 83.7957 267.762 84.4621 266.183 84.1545C265.305 84.0008 254.189 83.5395 254.189 83.5395C253.312 83.0781 165.381 83.2832 161.87 82.9244C158.36 82.5656 49.0166 83.0781 48.0806 82.4631C47.086 81.848 24.2696 84.5646 24.2696 84.5646C24.2696 84.5646 31.641 86.4099 34.7417 86.6149ZM37.0234 76.7222C37.9594 76.7735 242.84 77.6961 253.721 77.0298C254.774 76.9785 280.808 77.1835 281.686 76.9273C282.564 76.671 437.715 76.7222 437.715 76.7222L446.023 74.5694C446.023 74.5694 441.284 73.083 439.412 72.9804C437.95 72.9292 296.546 72.5704 296.546 72.5704C292.334 71.8015 278.234 73.8006 276.772 74.0056C277.532 73.9031 271.214 74.1081 269.634 73.8006C268.698 73.698 256.471 73.1342 256.471 73.1342C255.593 72.6729 167.662 72.8779 164.152 72.5191C160.642 72.1603 51.2983 72.6729 50.3622 72.0578C49.3677 71.4427 26.5512 74.6719 26.5512 74.6719C26.5512 74.6719 33.9227 76.5172 37.0234 76.7222ZM26.7267 125.622C27.6628 125.673 232.543 126.083 243.425 125.417C244.478 125.365 271.74 125.263 272.559 125.827C273.262 126.288 427.36 125.622 427.36 125.622L435.083 123.982C435.083 123.982 430.929 122.495 429.057 122.393C427.594 122.341 286.191 121.982 286.191 121.982C281.979 121.214 267.879 123.213 266.417 123.418C267.177 123.315 259.747 123.982 258.168 123.674C257.29 123.52 246.174 123.059 246.174 123.059C245.297 122.598 157.366 122.803 153.855 122.444C150.345 122.085 41.0016 122.598 40.0656 121.982C39.071 121.367 16.2545 124.084 16.2545 124.084C16.2545 124.084 23.626 125.417 26.7267 125.622Z" fill="black" stroke="black" stroke-miterlimit="10"/>
<path d="M19.1797 132.849L35.3268 60.9862H91.8414L90.1448 68.4698H98.8033L86.0495 125.263H77.3909L75.6943 132.9C75.6943 132.849 19.1797 132.849 19.1797 132.849ZM57.7922 113.371L65.2807 80.3102H61.946L54.516 113.422H57.7922V113.371Z" fill="black"/>
<path d="M87.6291 132.849L103.835 60.9862H134.783L118.519 132.849H87.6291Z" fill="black"/>
<path d="M130.395 132.849L132.15 125.212H123.609L136.363 68.4185H144.846L146.542 60.9349H203.232L197.207 87.845H174.741L176.438 80.3102H164.562L162.163 91.0743H196.505L187.027 132.952L130.395 132.849ZM160.583 113.371L161.285 110.245H157.951L157.249 113.371H160.583Z" fill="black"/>
<path d="M267.353 132.849L270.746 117.882H250.328L246.993 132.849H224.645L240.85 60.9862H271.857L268.406 76.0046H280.165L283.558 60.9862H314.507L298.36 132.849H267.353Z" fill="black"/>
<path d="M310.294 132.849L311.991 125.212H303.449L316.203 68.4185H324.686L326.324 60.9349H374.531L372.776 68.4185H381.552L368.681 125.263H359.964L358.209 132.9H310.294V132.849ZM340.424 113.371L347.854 80.3102H344.519L337.089 113.422H340.424V113.371Z" fill="black"/>
<path d="M395.944 132.849L399.22 117.882H395.944L392.609 132.849H370.261L386.466 60.9862H417.356L413.963 76.0046H417.298L420.691 60.9862H442.981L426.834 132.849H395.944Z" fill="black"/>
<path d="M190.362 132.849L206.684 60.9862H237.574L221.31 132.849H190.362Z" fill="black"/>
<path d="M71.014 76.1071H57.9092L48.6656 117.677H61.7704L71.014 76.1071ZM85.991 65.2406L84.3529 72.6216H93.0114L82.1297 121.111H73.4712L71.7746 128.697H25.0301L39.305 65.2918C39.305 65.2406 85.991 65.2406 85.991 65.2406Z" fill="#3BB3C2"/>
<path d="M107.637 65.1893H128.699L114.541 128.595H93.421L107.637 65.1893Z" fill="#3BB3C2"/>
<path d="M197.382 65.2406L193.287 83.6932H180.65L182.288 76.1071H160.7L151.34 117.728H164.503L167.194 106.093H158.419L160.876 95.2261H190.654L183.166 128.646H170.47L172.167 121.111H167.662L166.024 128.646H136.246L138.001 121.111H129.459L140.399 72.6216H148.824L150.579 65.2406H197.382Z" fill="#3BB3C2"/>
<path d="M262.555 80.259H284.143L287.536 65.2406H308.598L294.264 128.646H273.203L280.048 98.6091H275.485L272.15 113.628H251.03L254.365 98.6091H249.743L243.015 128.646H230.495L244.77 65.2406H265.89L262.555 80.259Z" fill="#3BB3C2"/>
<path d="M353.704 76.1071H340.599L331.297 117.677H344.344L353.704 76.1071ZM368.623 65.2406L366.926 72.6216H375.643L364.703 121.111H356.044L354.289 128.697H316.145L317.9 121.111H309.358L320.181 72.6216H328.723L330.42 65.2406H368.623Z" fill="#3BB3C2"/>
<path d="M408.113 80.259H416.596L413.261 95.2261H417.941L424.669 65.2406H437.13L422.914 128.646H401.794L405.129 113.628H396.587L399.981 98.6091H395.359L388.572 128.646H376.228L390.444 65.2406H411.564L408.113 80.259Z" fill="#3BB3C2"/>
<path d="M210.545 65.2406H231.607L217.39 128.646H196.329L210.545 65.2406Z" fill="#3BB3C2"/>
<path d="M39.305 65.2406L24.9716 128.646L22.7484 130.542L37.8424 63.3441L39.305 65.2406Z" fill="#78C8DC"/>
<path d="M73.7637 130.542H22.7484L24.9716 128.646H71.6576L73.7637 130.542Z" fill="#0078A0"/>
<path d="M85.991 65.2406H39.305L37.8424 63.3441H88.8577L85.991 65.2406Z" fill="#B4DCE6"/>
<path d="M71.6576 128.646L73.4712 121.111L75.5188 122.905L73.7637 130.542L71.6576 128.646Z" fill="#008CAA"/>
<path d="M73.4712 121.111H82.0712L84.1189 122.956L75.5188 122.905L73.4712 121.111Z" fill="#0078A0"/>
<path d="M84.4114 72.6216L85.991 65.2406L88.8577 63.3441L87.2196 70.8276L84.4114 72.6216Z" fill="#008CAA"/>
<path d="M92.9529 72.6216H84.4114L87.2196 70.8276H95.8196L92.9529 72.6216Z" fill="#B4DCE6"/>
<path d="M95.8196 70.8276L84.1189 122.956L82.0712 121.111L92.9529 72.6216L95.8196 70.8276Z" fill="#008CAA"/>
<path d="M61.7704 117.728H48.6656L51.4738 115.729H60.1908L61.7704 117.728Z" fill="#B4DCE6"/>
<path d="M59.9568 78.0549L51.4738 115.729L48.6656 117.728L57.9092 76.1071L59.9568 78.0549Z" fill="#008CAA"/>
<path d="M57.9092 76.1071H71.014L68.6739 78.0549H59.9568L57.9092 76.1071Z" fill="#0078A0"/>
<path d="M71.014 76.1071L61.7705 117.728L60.1909 115.729L68.6739 78.0549L71.014 76.1071Z" fill="#78C8DC"/>
<path d="M93.421 128.595L90.9638 130.389L106.233 63.3441L107.696 65.2406" fill="#78C8DC"/>
<path d="M93.421 128.595H114.541L116.53 130.389H90.9638L93.421 128.595Z" fill="#0078A0"/>
<path d="M131.565 63.2415L116.53 130.389L114.541 128.595L128.699 65.1893L131.565 63.2415Z" fill="#008CAA"/>
<path d="M129.459 121.111H138.001L135.427 122.956L127.002 122.905L129.459 121.111Z" fill="#0078A0"/>
<path d="M138.001 121.111L136.246 128.646L133.73 130.542L135.427 122.956L138.001 121.111Z" fill="#78C8DC"/>
<path d="M140.399 72.6216L129.459 121.111L127.002 122.905L138.703 70.8276L140.399 72.6216Z" fill="#78C8DC"/>
<path d="M148.824 72.6216H140.399L138.703 70.8276H147.186L148.824 72.6216Z" fill="#B4DCE6"/>
<path d="M150.579 65.2406L148.824 72.6216L147.186 70.8276L148.824 63.3441L150.579 65.2406Z" fill="#78C8DC"/>
<path d="M167.838 130.542H133.73L136.246 128.646H166.024L167.838 130.542Z" fill="#0078A0"/>
<path d="M164.503 117.728H151.34L154.031 115.729H162.806L164.503 117.728Z" fill="#B4DCE6"/>
<path d="M162.572 78.0549L154.031 115.729L151.34 117.728L160.7 76.1071L162.572 78.0549Z" fill="#008CAA"/>
<path d="M160.876 95.2261L158.419 106.093L155.961 108.04L159.238 93.3808L160.876 95.2261Z" fill="#78C8DC"/>
<path d="M166.024 128.646L167.662 121.111L169.593 122.956L167.838 130.542L166.024 128.646Z" fill="#008CAA"/>
<path d="M158.419 106.093H167.194L164.561 108.04H155.961L158.419 106.093Z" fill="#0078A0"/>
<path d="M172.167 121.111L170.47 128.646L167.896 130.542L169.71 122.956L172.167 121.111Z" fill="#78C8DC"/>
<path d="M167.194 106.093L164.503 117.728L162.806 115.729L164.562 108.04L167.194 106.093Z" fill="#78C8DC"/>
<path d="M197.382 65.2406H150.579L148.824 63.3441H200.132L197.382 65.2406Z" fill="#B4DCE6"/>
<path d="M167.662 121.111H172.167L169.71 122.956H169.593L167.662 121.111Z" fill="#0078A0"/>
<path d="M184.979 130.542H167.896L170.47 128.646H183.166L184.979 130.542Z" fill="#0078A0"/>
<path d="M160.7 76.1071H182.288L179.772 78.0549H162.572L160.7 76.1071Z" fill="#0078A0"/>
<path d="M190.654 95.2261H160.876L159.238 93.3808H193.345L190.654 95.2261Z" fill="#B4DCE6"/>
<path d="M182.288 76.1071L180.65 83.6932L178.134 85.5385L179.773 78.0549L182.288 76.1071Z" fill="#78C8DC"/>
<path d="M195.1 85.5385H178.134L180.65 83.6932H193.287L195.1 85.5385Z" fill="#0078A0"/>
<path d="M193.345 93.3808L184.979 130.542L183.166 128.646L190.654 95.2261L193.345 93.3808Z" fill="#008CAA"/>
<path d="M200.132 63.3441L195.1 85.5385L193.287 83.6932L197.382 65.2406L200.132 63.3441Z" fill="#008CAA"/>
<path d="M308.598 65.2406H287.536L285.664 63.3441H311.172L308.598 65.2406Z" fill="#B4DCE6"/>
<path d="M311.172 63.3441L296.078 130.542L294.264 128.646L308.598 65.2406L311.172 63.3441Z" fill="#008CAA"/>
<path d="M296.078 130.542H270.512L273.203 128.646H294.264L296.078 130.542Z" fill="#0078A0"/>
<path d="M287.536 65.2406L284.143 80.259L282.33 78.3625L285.664 63.3441L287.536 65.2406Z" fill="#78C8DC"/>
<path d="M280.048 98.6091L273.203 128.646L270.512 130.542L277.298 100.557L280.048 98.6091Z" fill="#78C8DC"/>
<path d="M275.485 98.6091H280.048L277.298 100.557H277.24L275.485 98.6091Z" fill="#0078A0"/>
<path d="M277.24 100.557L273.847 115.524L272.15 113.628L275.485 98.6091L277.24 100.557Z" fill="#008CAA"/>
<path d="M268.581 63.3441L265.071 78.3625L262.555 80.259L265.89 65.2406L268.581 63.3441Z" fill="#008CAA"/>
<path d="M265.89 65.2406H244.77L243.015 63.3441H268.581L265.89 65.2406Z" fill="#B4DCE6"/>
<path d="M284.143 80.259H262.555L265.071 78.3625H282.33L284.143 80.259Z" fill="#B4DCE6"/>
<path d="M230.495 128.646H243.015L244.653 130.542H227.921L230.495 128.646Z" fill="#0078A0"/>
<path d="M251.03 113.628H272.15L273.847 115.524H248.339L251.03 113.628Z" fill="#0078A0"/>
<path d="M243.015 128.646L249.743 98.6091L251.498 100.557L244.653 130.542L243.015 128.646Z" fill="#008CAA"/>
<path d="M254.365 98.6091L251.03 113.628L248.339 115.524L251.674 100.557L254.365 98.6091Z" fill="#78C8DC"/>
<path d="M251.498 100.557L249.743 98.6091H254.365L251.674 100.557H251.498Z" fill="#0078A0"/>
<path d="M244.77 65.2406L230.495 128.646L227.921 130.542L243.015 63.3441L244.77 65.2406Z" fill="#78C8DC"/>
<path d="M340.658 76.1071H353.704L350.954 78.0549H342.237L340.658 76.1071Z" fill="#0078A0"/>
<path d="M353.704 76.1071L344.344 117.728L342.413 115.729L350.954 78.0549L353.704 76.1071Z" fill="#78C8DC"/>
<path d="M344.343 117.728H331.239L333.696 115.729H342.413L344.343 117.728Z" fill="#B4DCE6"/>
<path d="M342.237 78.0549L333.696 115.729L331.239 117.728L340.658 76.1071L342.237 78.0549Z" fill="#008CAA"/>
<path d="M375.643 72.6216H366.926L369.383 70.8276H378.042L375.643 72.6216Z" fill="#B4DCE6"/>
<path d="M366.926 72.6216L368.623 65.2406L371.138 63.3441L369.383 70.8276L366.926 72.6216Z" fill="#008CAA"/>
<path d="M378.042 70.8276L366.282 122.956L364.703 121.111L375.643 72.6216L378.042 70.8276Z" fill="#008CAA"/>
<path d="M366.282 122.956H357.682L356.044 121.111H364.703L366.282 122.956Z" fill="#0078A0"/>
<path d="M354.406 128.646L356.044 121.111L357.682 122.956L355.986 130.542L354.406 128.646Z" fill="#008CAA"/>
<path d="M368.623 65.2406H330.42L328.489 63.3441H371.138L368.623 65.2406Z" fill="#B4DCE6"/>
<path d="M355.986 130.542H313.337L316.145 128.646H354.406L355.986 130.542Z" fill="#0078A0"/>
<path d="M328.489 63.3441L330.42 65.2406L328.723 72.6216L326.851 70.8276L328.489 63.3441Z" fill="#78C8DC"/>
<path d="M318.368 70.8276H326.851L328.723 72.6216H320.181L318.368 70.8276Z" fill="#B4DCE6"/>
<path d="M317.9 121.111L316.145 128.646L313.337 130.542L315.092 122.956L317.9 121.111Z" fill="#78C8DC"/>
<path d="M309.358 121.111H317.9L315.092 122.956L306.667 122.905L309.358 121.111Z" fill="#0078A0"/>
<path d="M320.181 72.6216L309.358 121.111L306.667 122.905L318.368 70.8276L320.181 72.6216Z" fill="#78C8DC"/>
<path d="M437.13 65.2406H424.669L422.622 63.3441H439.471L437.13 65.2406Z" fill="#B4DCE6"/>
<path d="M439.471 63.3441L424.318 130.542L422.914 128.646L437.13 65.2406L439.471 63.3441Z" fill="#008CAA"/>
<path d="M424.669 65.2406L417.941 95.2261L415.835 93.3809L422.622 63.3441L424.669 65.2406Z" fill="#78C8DC"/>
<path d="M413.261 95.2261L416.596 80.259L418.994 78.3625L415.66 93.3809L413.261 95.2261Z" fill="#008CAA"/>
<path d="M417.941 95.2261H413.261L415.66 93.3808H415.835L417.941 95.2261Z" fill="#B4DCE6"/>
<path d="M401.794 128.646H422.914L424.318 130.542H398.927L401.794 128.646Z" fill="#0078A0"/>
<path d="M416.596 80.259H408.113L410.57 78.3625H418.994L416.596 80.259Z" fill="#B4DCE6"/>
<path d="M413.904 63.3441L410.57 78.3625L408.113 80.259L411.564 65.2406L413.904 63.3441Z" fill="#008CAA"/>
<path d="M411.564 65.2406H390.444L388.338 63.3441H413.905L411.564 65.2406Z" fill="#B4DCE6"/>
<path d="M402.204 115.524L405.129 113.628L401.794 128.646L398.927 130.542L402.204 115.524Z" fill="#78C8DC"/>
<path d="M396.587 113.628H405.129L402.204 115.524H393.721L396.587 113.628Z" fill="#0078A0"/>
<path d="M395.359 98.6091H399.981L397.172 100.557H396.88L395.359 98.6091Z" fill="#0078A0"/>
<path d="M399.981 98.6091L396.587 113.628L393.721 115.524L397.172 100.557L399.981 98.6091Z" fill="#78C8DC"/>
<path d="M396.88 100.557L390.21 130.542L388.572 128.646L395.359 98.6091L396.88 100.557Z" fill="#008CAA"/>
<path d="M376.228 128.646H388.572L390.21 130.542H373.244L376.228 128.646Z" fill="#0078A0"/>
<path d="M390.444 65.2406L376.228 128.646L373.244 130.542L388.338 63.3441L390.444 65.2406Z" fill="#78C8DC"/>
<path d="M128.757 65.2406H107.696L106.175 63.3441H131.624L128.757 65.2406Z" fill="#B4DCE6"/>
<path d="M210.604 65.2406L196.388 128.646L193.93 130.44L208.907 63.3441L210.604 65.2406Z" fill="#78C8DC"/>
<path d="M234.474 63.3441L219.38 130.44L217.449 128.646L231.665 65.2406L234.474 63.3441Z" fill="#008CAA"/>
<path d="M231.665 65.2406H210.604L208.907 63.3441H234.473L231.665 65.2406Z" fill="#B4DCE6"/>
<path d="M219.555 130.389H194.106L196.622 128.595H217.741L219.555 130.389Z" fill="#0078A0"/>
<path d="M73.5297 74.4156H56.4466L46.3255 119.368H63.4086L73.5297 74.4156ZM81.8958 74.4156H90.6128L80.4917 119.368H71.8916L70.195 127.006H27.4288L40.8846 66.9833H83.6509L81.8958 74.4156Z" fill="url(#paint9_linear_229_197)" stroke="white" stroke-width="1.5" stroke-miterlimit="10"/>
<path d="M95.4101 127.364L109.158 66.5732H127.061L113.371 127.364H95.4101Z" fill="url(#paint10_linear_229_197)"/>
<path d="M126.534 66.9321L113.02 126.954H95.9366L109.51 66.9321H126.534ZM127.646 66.1632H126.593H109.51H108.807L108.69 66.7783L95.0591 126.852L94.8251 127.775H95.8781H112.961H113.663L113.78 127.159L127.353 67.1371L127.646 66.1632Z" fill="white"/>
<path d="M172.401 127.364L174.039 119.727H166.492L164.737 127.364H138.118L139.756 119.727H131.331L141.628 74.0568H150.111L151.749 66.5732H195.51L192.058 82.258H182.405L184.16 74.7744H159.413L149.585 119.01H165.79L168.949 104.709H160.408L162.163 96.6101H188.841L181.879 127.364H172.401Z" fill="url(#paint11_linear_229_197)"/>
<path d="M194.983 66.9321L191.707 81.8992H182.99L184.687 74.3131H159.062L149.058 119.368H166.141L164.445 126.954H138.586L140.341 119.317H131.799L142.038 74.4156H150.521L152.159 66.9321H194.983ZM188.314 97.0201L181.528 127.006H172.869L174.507 119.317H166.141L169.476 104.35H160.876L162.514 96.9689H188.314M196.037 66.1632H194.983H152.1H151.398L151.281 66.7783L149.819 73.6468H141.979H141.277L141.16 74.2619L131.039 119.215L130.805 120.137H131.858H139.346L137.825 126.801L137.591 127.723H138.644H164.503H165.205L165.322 127.108L166.96 120.086H173.688L172.226 126.801L172.05 127.723H173.103H181.703H182.23L182.347 127.108L189.133 97.1226L189.367 96.2H188.314H162.514H161.812L161.636 96.8664L160.057 104.196L159.881 105.119H160.934H168.481L165.498 118.599H150.053L159.764 75.1332H183.634L182.113 81.7967L181.879 82.7193H182.99H191.707H192.409L192.526 82.053L195.861 67.0858L196.037 66.1632Z" fill="white"/>
<path d="M275.075 127.364L281.862 97.3277H274.256L270.863 112.397H252.844L256.237 97.3277H248.514L241.728 127.364H232.367L246.116 66.5732H264.076L260.683 81.5404H285.43L288.823 66.5732H306.784L293.153 127.364H275.075Z" fill="url(#paint12_linear_229_197)"/>
<path d="M306.258 66.9321L292.802 126.954H275.602L282.388 96.9689H273.847L270.512 111.936H253.429L256.763 96.9689H248.105L241.318 126.954H232.835L246.408 66.9321H263.491L260.098 81.8992H285.723L289.175 66.9321H306.258ZM307.311 66.1632H306.258H289.175H288.414L288.297 66.7783L284.962 81.1303H261.093L264.31 67.0346L264.544 66.1119H263.491H246.408H245.706L245.589 66.727L232.016 126.852L231.782 127.775H232.835H241.377H242.079L242.196 127.159L248.807 97.7377H255.769L252.61 111.885L252.376 112.807H253.429H270.512H271.214L271.331 112.192L274.549 97.8402H281.218L274.607 126.954L274.373 127.877H275.426H292.626H293.328L293.445 127.262L306.901 67.2396L307.311 66.1632Z" fill="white"/>
<path d="M364.586 74.4156H373.303L363.182 119.368H354.465L352.768 127.006H318.543L320.24 119.368H311.698L321.82 74.4156H330.303L331.941 66.9321H366.224L364.586 74.4156ZM356.044 74.4156H338.961L328.84 119.368H345.923L356.044 74.4156Z" fill="url(#paint13_linear_229_197)" stroke="white" stroke-width="1.5" stroke-miterlimit="10"/>
<path d="M403.666 127.364L407.001 112.397H398.46L401.853 97.3277H394.072L387.402 127.364H377.983L391.615 66.5732H409.634L406.299 81.5404H414.841L411.389 96.6101H419.17L425.898 66.5732H435.2L421.569 127.364H403.666Z" fill="url(#paint14_linear_229_197)"/>
<path d="M434.732 66.932L421.276 126.954H404.193L407.528 111.987H398.986L402.438 97.0201H393.721L387.051 127.006H378.51L391.966 66.9833H409.107L405.772 81.9504H414.314L410.804 97.0201H419.521L426.249 66.9833L434.732 66.932ZM435.785 66.1632H434.732H426.249H425.547L425.43 66.7783L418.877 96.2512H411.974L415.192 82.053L415.426 81.1303H414.373H406.943L410.102 66.9833L410.336 66.0607H409.107H392.024H391.322L391.205 66.6758L377.691 126.852L377.457 127.775H378.51H387.051H387.753L387.87 127.159L394.423 97.7377H401.326L398.108 111.833L397.874 112.756H398.928H406.358L403.198 126.903L402.964 127.826H404.017H421.1H421.802L421.92 127.211L435.375 67.1883L435.785 66.1632Z" fill="white"/>
<path d="M198.084 127.364L211.833 66.5732H229.852L216.103 127.364H198.084Z" fill="url(#paint15_linear_229_197)"/>
<path d="M229.325 66.9321L215.752 126.954H198.611L212.184 66.9321H229.325ZM230.378 66.1632H229.325H212.242H211.54L211.423 66.7783L197.792 126.852L197.616 127.723H198.669H215.752H216.454L216.571 127.108L230.144 67.0858L230.378 66.1632Z" fill="white"/>
<path d="M189.601 151.712L181.177 158.119L179.012 157.145L180.123 147.406L176.087 154.223L175.502 155.556L173.63 154.736C173.981 154.428 174.332 154.018 174.566 153.506L178.661 146.535L179.246 145.202L183.458 147.099L182.522 155.453L189.777 149.815L193.872 151.609L192.819 152.839L188.782 159.81L188.197 161.143L184.628 159.554L185.681 158.324L189.777 151.507H189.66V151.712H189.601Z" fill="black"/>
<path d="M203.818 155.915L200.483 154.941C199.956 154.838 199.664 154.992 199.547 155.453L197.382 161.758C197.207 162.219 197.324 162.476 197.733 162.578L201.185 163.501C201.594 163.655 201.887 163.552 202.004 163.091L204.227 156.786L203.818 155.915ZM199.196 153.249L206.099 155.043C207.679 155.505 208.147 156.376 207.737 157.76L205.69 163.808C205.163 165.192 204.169 165.654 202.589 165.346L195.686 163.552C194.106 163.04 193.638 162.168 194.047 160.836L196.212 154.736C196.622 153.301 197.616 152.788 199.196 153.249Z" fill="black"/>
<path d="M211.54 156.376L215.928 156.889L220.55 166.115L221.837 159.093V157.658L223.884 157.965L223.416 159.349L221.837 168.473L217.741 167.909L213.061 158.529L211.716 165.705V167.089L209.668 166.833L210.253 165.449L211.423 157.709L211.54 156.376Z" fill="black"/>
<path d="M235.995 161.758C237.691 161.809 238.452 162.578 238.393 163.962L238.276 166.679C238.276 168.114 237.457 168.78 235.878 168.78L227.512 168.627L227.219 166.986L229.091 167.294L234.064 167.396C234.59 167.396 234.824 167.191 234.824 166.73V165.397C234.824 164.936 234.59 164.731 234.181 164.68L229.676 164.577C228.038 164.577 227.277 163.86 227.277 162.476L227.395 160.169C227.395 158.734 228.214 158.068 229.793 158.068L238.159 158.221L238.452 159.81L236.58 159.554L231.607 159.452C231.08 159.4 230.846 159.605 230.846 160.015V161.092C230.846 161.553 231.08 161.758 231.49 161.758H235.995Z" fill="black"/>
<path d="M251.966 158.939L250.035 158.888L248.222 158.939L249.099 166.73L249.45 168.217L245.414 168.575V167.089L244.595 159.246L242.839 159.4L240.909 159.81L241.084 158.119L251.498 157.299L251.966 158.939Z" fill="black"/>
<path d="M254.365 156.94L264.076 155.146L264.72 156.632L262.848 156.735L258.402 157.658L259.162 160.836L263.082 160.015C263.842 159.913 264.486 159.708 264.895 159.452L265.363 161.246L263.491 161.348L259.572 162.066L260.332 165.397L264.837 164.475L266.651 163.911L266.768 165.5L257.056 167.294L256.939 165.859L255.067 158.221L254.365 156.94Z" fill="black"/>
<path d="M280.106 154.685C280.516 155.659 280.165 156.325 278.995 156.889L281.861 159.759C282.212 160.22 282.681 160.477 283.149 160.579L279.229 161.861L275.426 158.068L273.027 158.888L274.314 161.912L275.075 163.245L271.272 164.475L270.98 163.04L267.879 155.659L267.119 154.377L276.187 151.507C277.708 150.994 278.702 151.455 279.287 152.788L280.106 154.685ZM275.134 153.352L271.214 154.582L272.501 157.606L276.421 156.376C276.83 156.274 277.006 155.966 276.772 155.453L276.011 153.813C275.836 153.352 275.543 153.147 275.134 153.352Z" fill="black"/>
<path d="M292.217 146.33L290.403 146.893L286.074 148.995C285.664 149.2 285.547 149.508 285.781 149.918L286.366 150.84C286.6 151.199 286.951 151.302 287.302 151.097L291.398 149.2C292.802 148.534 293.855 148.841 294.674 150.123L296.136 152.481C296.955 153.762 296.663 154.685 295.2 155.402L287.887 158.939L286.776 157.606L288.472 157.042L292.919 154.992C293.387 154.787 293.445 154.48 293.211 154.07L292.392 152.839C292.158 152.378 291.807 152.276 291.456 152.532L287.419 154.428C285.957 155.146 284.904 154.838 284.085 153.506L282.798 151.558C281.979 150.276 282.33 149.354 283.851 148.636L291.047 145.099L292.217 146.33Z" fill="black"/>
<path d="M187.963 152.327L179.421 158.734L177.257 157.658L178.485 147.97V147.867L174.39 154.685L173.805 156.12L171.933 155.197C172.343 154.89 172.694 154.48 172.986 153.967L177.081 147.047L177.666 145.715L181.879 147.611L180.826 155.864L188.08 150.533L192.117 152.327L191.181 153.557L187.085 160.477L186.5 161.809L182.932 160.22L183.985 158.99L187.963 152.327Z" fill="#FFFF8C"/>
<path d="M198.143 156.376L195.919 162.681C195.744 163.142 195.861 163.398 196.271 163.501L199.722 164.475C200.132 164.577 200.424 164.423 200.541 164.065L202.764 157.658C202.94 157.299 202.823 156.991 202.296 156.837L198.962 155.915C198.552 155.812 198.26 155.966 198.143 156.376ZM197.675 154.121L204.578 156.017C206.099 156.479 206.567 157.35 206.099 158.734L204.052 164.782C203.525 166.218 202.53 166.679 200.951 166.218L193.989 164.423C192.409 163.962 191.941 163.091 192.351 161.707L194.574 155.658C195.1 154.172 196.154 153.762 197.675 154.121Z" fill="#FFFF8C"/>
<path d="M210.428 157.299L214.816 157.965L219.379 167.14H219.497L220.608 160.22L220.725 158.785L222.773 159.093L222.246 160.425L220.608 169.6L216.571 168.985L211.891 159.657L210.721 166.679L210.604 168.217L208.498 167.909L209.024 166.576L210.428 158.785V157.299Z" fill="#FFFF8C"/>
<path d="M237.34 161.143L235.468 160.887L230.495 160.733C229.969 160.733 229.735 160.938 229.735 161.399V162.476C229.676 162.937 229.91 163.142 230.378 163.142L234.883 163.245C236.521 163.296 237.282 164.065 237.223 165.449V168.165C237.165 169.652 236.287 170.318 234.708 170.267L226.4 170.011L226.224 168.422L228.038 168.729L233.011 168.832C233.537 168.832 233.771 168.627 233.771 168.165L233.888 166.73C233.888 166.269 233.654 166.064 233.128 166.064L228.623 165.961C226.985 165.91 226.224 165.141 226.283 163.757L226.4 161.451C226.4 160.015 227.219 159.349 228.799 159.4L237.165 159.554L237.34 161.143Z" fill="#FFFF8C"/>
<path d="M247.052 160.323L247.754 168.165L248.105 169.601L244.185 169.857L244.244 168.422L243.425 160.579L241.552 160.733L239.739 161.092L239.856 159.503L250.328 158.734L250.738 160.323L248.865 160.169L247.052 160.323Z" fill="#FFFF8C"/>
<path d="M253.312 158.324L263.023 156.581L263.784 158.068L261.795 158.119L257.348 158.939L257.992 162.117L261.97 161.348L263.842 160.836L264.193 162.681L262.263 162.783L258.343 163.501L259.104 166.679L263.667 165.961L265.422 165.397L265.539 166.935L255.71 168.78L255.652 167.243L253.897 159.657L253.312 158.324Z" fill="#FFFF8C"/>
<path d="M274.549 154.685L270.512 155.966L271.799 158.99L275.719 157.76C276.128 157.606 276.304 157.299 276.07 156.837L275.309 155.146C275.134 154.736 274.841 154.582 274.549 154.685ZM279.404 156.274C279.814 157.247 279.463 157.914 278.293 158.478L281.101 161.348L282.388 162.271L278.585 163.501L274.783 159.605L272.384 160.425L273.612 163.552L274.432 164.834L270.629 166.064L270.278 164.629L267.294 157.299L266.534 155.966L275.602 153.198C277.181 152.686 278.176 153.147 278.702 154.48L279.404 156.274Z" fill="#FFFF8C"/>
<path d="M282.388 152.839C281.569 151.558 281.92 150.635 283.441 149.969L290.637 146.432L291.866 147.765L290.052 148.329L285.606 150.379C285.255 150.584 285.138 150.892 285.313 151.199L285.957 152.173C286.132 152.532 286.483 152.634 286.893 152.429L290.93 150.635C292.334 149.918 293.387 150.225 294.264 151.558L295.727 153.916C296.546 155.197 296.195 156.12 294.674 156.786L287.361 160.323L286.249 158.99L288.063 158.426L292.392 156.376C292.802 156.171 292.919 155.864 292.685 155.556L291.924 154.275C291.69 153.916 291.339 153.813 290.871 154.018L286.834 155.812C285.43 156.53 284.377 156.222 283.5 154.89L282.388 152.839Z" fill="#FFFF8C"/>
<path d="M194.866 33.256L190.947 34.4349L193.93 41.7647L197.85 40.4833C198.26 40.3808 198.435 40.1245 198.201 39.7657L195.686 33.6661L194.866 33.256ZM199.02 32.6922L201.419 38.5868C202.004 39.8682 201.477 40.7396 199.956 41.3034L190.888 44.1738L190.596 42.7386L187.612 35.6138L186.91 34.2812L195.978 31.3082C197.441 30.9494 198.435 31.3082 199.02 32.6922Z" fill="black"/>
<path d="M208.147 28.5916L208.322 30.078L210.311 37.4078L210.897 38.7405L207.094 39.5606L206.86 38.1254L204.871 30.6931L204.286 29.4117L208.147 28.5916Z" fill="black"/>
<path d="M224.177 27.874L218.794 28.4378C218.385 28.4378 218.151 28.6428 218.151 29.1041L219.087 35.6138C219.087 35.9726 219.321 36.1776 219.848 36.1776L223.475 35.7676L224.06 35.255L223.592 32.1283L220.608 32.4359L219.672 32.6921L219.497 31.1544L226.985 30.4368C226.868 30.7444 226.809 31.2569 226.868 31.7695L227.336 35.2038C227.395 35.7676 227.57 36.2289 227.804 36.5364L224.645 36.844L224.352 35.9214C224.294 36.5877 223.767 36.9465 222.89 37.049L218.209 37.5616C216.63 37.6641 215.811 36.9978 215.577 35.6651L214.758 29.5654C214.582 28.1302 215.284 27.3614 216.805 27.2076L225.522 26.285L225.99 27.874H224.177Z" fill="black"/>
<path d="M236.989 26.2337L236.697 27.6689V35.3063C236.697 35.8701 236.814 36.3314 236.989 36.639H232.952L233.245 35.3063V27.6689L232.952 26.2337H236.989Z" fill="black"/>
<path d="M252.317 28.7453L250.504 28.3865L248.69 28.2328L247.871 35.8188L247.929 37.3053L244.068 36.9465L244.478 35.5113L245.238 27.874L243.425 27.7714L241.552 27.874L241.962 26.285L252.259 27.1051L252.317 28.7453Z" fill="black"/>
<path d="M257.114 34.2299L261.034 34.9475L259.981 30.7444L257.114 34.2299ZM263.374 29.0529L265.714 38.0742L266.475 40.1757L262.204 39.4069L262.321 39.1506L262.146 37.6641L261.853 36.3314L256.471 35.3575L255.359 36.6902L254.716 38.0229L252.493 37.5103L254.248 35.8701L259.923 28.9504L259.572 28.2328L263.374 29.0529Z" fill="black"/>
<path d="M276.772 34.2299L273.671 41.3547L277.942 42.8411L279.755 43.1487L278.878 44.4814L269.693 41.5084L270.395 40.3295L273.495 33.1535L273.847 31.7695L277.591 32.9997L276.772 34.2299Z" fill="black"/>
<path d="M189.601 33.6148L192.585 40.8421L196.505 39.6119C196.856 39.4581 197.031 39.1506 196.856 38.7918L194.34 32.6922C194.223 32.3334 193.93 32.1796 193.404 32.2821L189.601 33.6148ZM197.675 31.872L200.015 37.6641C200.658 38.9968 200.19 39.8682 198.611 40.3808L189.543 43.2512L189.192 41.9185L186.325 34.6912L185.623 33.4098L194.691 30.5394C196.154 30.1293 197.207 30.5906 197.675 31.872Z" fill="#FFFF8C"/>
<path d="M206.977 27.6689L207.094 29.0529L209.024 36.4852L209.609 37.8179L205.807 38.5868L205.748 37.2028L203.701 29.8218L203.115 28.4891L206.977 27.6689Z" fill="#FFFF8C"/>
<path d="M222.89 26.8488L217.507 27.4126C217.098 27.4639 216.864 27.7202 216.922 28.1302L217.741 34.5374C217.858 34.9987 218.151 35.1525 218.56 35.1012L222.188 34.7937L222.656 34.2299L222.305 31.1032L219.204 31.4107L218.385 31.7183L218.209 30.2318L225.639 29.4117V30.8469L226.107 34.2811L226.458 35.6138L223.358 35.9214L223.065 34.9987H222.948C222.948 35.6138 222.48 35.9726 221.544 36.0751L216.864 36.5877C215.284 36.7415 214.465 36.1264 214.231 34.7937L213.412 28.6428C213.237 27.2589 213.939 26.5413 215.46 26.3362L224.235 25.4136L224.703 26.9001L222.89 26.8488Z" fill="#FFFF8C"/>
<path d="M235.995 25.2086L235.819 26.6438V34.1786L235.995 35.6138H232.075L232.25 34.1786V26.6438L232.075 25.2086H235.995Z" fill="#FFFF8C"/>
<path d="M251.323 27.6689L249.509 27.2589L247.695 27.1564L246.876 34.7937C246.818 35.3575 246.818 35.8188 246.993 36.2289L242.957 35.9214L243.308 34.4862L244.127 26.8488L242.313 26.695L240.499 26.7975L240.967 25.2598L251.089 26.0799L251.323 27.6689Z" fill="#FFFF8C"/>
<path d="M258.285 27.2076L262.087 27.9252L264.31 36.9465C264.544 38.0742 264.837 38.7405 265.129 39.0481L260.8 38.2279L260.917 37.9717L260.8 36.4852L260.449 35.1525L255.184 34.1786L254.014 35.5113L253.37 36.844L251.206 36.3314L252.961 34.6912L258.577 27.7714L258.285 27.2076ZM259.104 29.5654L256.237 33.1022L260.157 33.8198L259.104 29.5654Z" fill="#FFFF8C"/>
<path d="M276.011 32.8972L272.91 40.0732L277.123 41.4572L278.936 41.7647L278 43.1487L268.874 40.227L269.693 38.8943L272.676 31.7695L273.027 30.4881L276.772 31.6158L276.011 32.8972Z" fill="#FFFF8C"/>
</g>
</g>
<defs>
<linearGradient id="paint0_linear_229_197" x1="294.616" y1="23.8355" x2="318.273" y2="33.6632" gradientUnits="userSpaceOnUse">
<stop stop-color="#7A9AC9"/>
<stop offset="0.2071" stop-color="#7899C8"/>
<stop offset="0.2817" stop-color="#7196C6"/>
<stop offset="0.3349" stop-color="#6690C1"/>
<stop offset="0.3779" stop-color="#5587BA"/>
<stop offset="0.4147" stop-color="#3F7CB1"/>
<stop offset="0.4467" stop-color="#246EA6"/>
<stop offset="0.4624" stop-color="#1466A0"/>
<stop offset="0.4752" stop-color="#13659E"/>
<stop offset="0.686" stop-color="#075081"/>
<stop offset="0.8065" stop-color="#034876"/>
<stop offset="1" stop-color="#024673"/>
</linearGradient>
<linearGradient id="paint1_linear_229_197" x1="163.836" y1="11.8625" x2="298.483" y2="11.8625" gradientUnits="userSpaceOnUse">
<stop stop-color="#D0D8ED"/>
<stop offset="0.2349" stop-color="#CDD6EC"/>
<stop offset="0.4242" stop-color="#C3CEE7"/>
<stop offset="0.5976" stop-color="#B2C2E0"/>
<stop offset="0.7606" stop-color="#9AB1D7"/>
<stop offset="0.8226" stop-color="#8FA9D2"/>
<stop offset="1" stop-color="#7A9AC9"/>
</linearGradient>
<linearGradient id="paint2_linear_229_197" x1="152.067" y1="28.9035" x2="163.165" y2="15.7855" gradientUnits="userSpaceOnUse">
<stop offset="0.1828" stop-color="#D0D8ED"/>
<stop offset="0.4731" stop-color="white"/>
<stop offset="0.6017" stop-color="#FCFCFE"/>
<stop offset="0.7074" stop-color="#F2F4FA"/>
<stop offset="0.8046" stop-color="#E0E6F3"/>
<stop offset="0.871" stop-color="#D0D8ED"/>
</linearGradient>
<linearGradient id="paint3_linear_229_197" x1="335.526" y1="45.3823" x2="346.553" y2="49.9631" gradientUnits="userSpaceOnUse">
<stop stop-color="#89A4D3"/>
<stop offset="0.1031" stop-color="#87A3D2"/>
<stop offset="0.1402" stop-color="#809FCF"/>
<stop offset="0.1667" stop-color="#7599CA"/>
<stop offset="0.1881" stop-color="#6490C3"/>
<stop offset="0.2064" stop-color="#4E85B9"/>
<stop offset="0.2224" stop-color="#3376AE"/>
<stop offset="0.2366" stop-color="#1466A0"/>
<stop offset="0.5968" stop-color="#12639C"/>
<stop offset="0.6045" stop-color="#12629B"/>
<stop offset="0.8562" stop-color="#064E7E"/>
<stop offset="1" stop-color="#024673"/>
</linearGradient>
<linearGradient id="paint4_linear_229_197" x1="302.448" y1="174.788" x2="315.288" y2="162.491" gradientUnits="userSpaceOnUse">
<stop stop-color="#044A7B"/>
<stop offset="0.2598" stop-color="#054E7F"/>
<stop offset="0.4923" stop-color="#095889"/>
<stop offset="0.5161" stop-color="#0A5A8B"/>
<stop offset="0.5247" stop-color="#0A598A"/>
<stop offset="0.7389" stop-color="#064F80"/>
<stop offset="1" stop-color="#054C7D"/>
</linearGradient>
<linearGradient id="paint5_linear_229_197" x1="150.881" y1="154.297" x2="162.711" y2="177.685" gradientUnits="userSpaceOnUse">
<stop stop-color="#89A4D3"/>
<stop offset="0.2796" stop-color="#88A4D3"/>
<stop offset="0.3303" stop-color="#809FCE"/>
<stop offset="0.4091" stop-color="#6A90BF"/>
<stop offset="0.506" stop-color="#4677A7"/>
<stop offset="0.6164" stop-color="#155586"/>
<stop offset="0.629" stop-color="#0F5182"/>
<stop offset="0.8817" stop-color="#044A7B"/>
</linearGradient>
<linearGradient id="paint6_linear_229_197" x1="335.8" y1="147.346" x2="346.703" y2="142.817" gradientUnits="userSpaceOnUse">
<stop stop-color="#044A7B"/>
<stop offset="0.1022" stop-color="#044A7B"/>
<stop offset="0.4946" stop-color="#06598D"/>
<stop offset="1" stop-color="#02426E"/>
</linearGradient>
<linearGradient id="paint7_linear_229_197" x1="121.952" y1="51.9937" x2="129.299" y2="40.0177" gradientUnits="userSpaceOnUse">
<stop stop-color="#B2C2DB"/>
<stop offset="0.0376344" stop-color="#B2C2DB"/>
<stop offset="0.0641484" stop-color="#C0CDE2"/>
<stop offset="0.1194" stop-color="#D7DFEC"/>
<stop offset="0.1831" stop-color="#E9EEF5"/>
<stop offset="0.2594" stop-color="#F6F8FB"/>
<stop offset="0.3611" stop-color="#FDFDFE"/>
<stop offset="0.5914" stop-color="white"/>
<stop offset="0.6991" stop-color="#FCFDFE"/>
<stop offset="0.7782" stop-color="#F3F5FA"/>
<stop offset="0.8478" stop-color="#E3E8F4"/>
<stop offset="0.9032" stop-color="#D0D8ED"/>
<stop offset="0.9839" stop-color="#D0D8ED"/>
</linearGradient>
<linearGradient id="paint8_linear_229_197" x1="122.693" y1="141.72" x2="131.313" y2="151.559" gradientUnits="userSpaceOnUse">
<stop stop-color="#89A4D3"/>
<stop offset="0.2318" stop-color="#5A85B2"/>
<stop offset="0.4637" stop-color="#336B96"/>
<stop offset="0.6766" stop-color="#175882"/>
<stop offset="0.8623" stop-color="#064D75"/>
<stop offset="1" stop-color="#004971"/>
</linearGradient>
<linearGradient id="paint9_linear_229_197" x1="59.0369" y1="66.9384" x2="59.0369" y2="126.957" gradientUnits="userSpaceOnUse">
<stop stop-color="#FFF5C2"/>
<stop offset="0.5" stop-color="#FED032"/>
<stop offset="1" stop-color="#F49A22"/>
</linearGradient>
<linearGradient id="paint10_linear_229_197" x1="111.221" y1="66.5854" x2="111.221" y2="127.361" gradientUnits="userSpaceOnUse">
<stop stop-color="#FFF5C2"/>
<stop offset="0.5" stop-color="#FED032"/>
<stop offset="1" stop-color="#F49A22"/>
</linearGradient>
<linearGradient id="paint11_linear_229_197" x1="163.404" y1="66.5854" x2="163.404" y2="127.361" gradientUnits="userSpaceOnUse">
<stop stop-color="#FFF5C2"/>
<stop offset="0.5" stop-color="#FED032"/>
<stop offset="1" stop-color="#F49A22"/>
</linearGradient>
<linearGradient id="paint12_linear_229_197" x1="269.556" y1="66.5854" x2="269.556" y2="127.361" gradientUnits="userSpaceOnUse">
<stop stop-color="#FFF5C2"/>
<stop offset="0.5" stop-color="#FED032"/>
<stop offset="1" stop-color="#F49A22"/>
</linearGradient>
<linearGradient id="paint13_linear_229_197" x1="342.464" y1="66.9384" x2="342.464" y2="126.957" gradientUnits="userSpaceOnUse">
<stop stop-color="#FFF5C2"/>
<stop offset="0.5" stop-color="#FED032"/>
<stop offset="1" stop-color="#F49A22"/>
</linearGradient>
<linearGradient id="paint14_linear_229_197" x1="406.592" y1="66.5854" x2="406.592" y2="127.361" gradientUnits="userSpaceOnUse">
<stop stop-color="#FFF5C2"/>
<stop offset="0.5" stop-color="#FED032"/>
<stop offset="1" stop-color="#F49A22"/>
</linearGradient>
<linearGradient id="paint15_linear_229_197" x1="213.976" y1="66.5854" x2="213.976" y2="127.361" gradientUnits="userSpaceOnUse">
<stop stop-color="#FFF5C2"/>
<stop offset="0.5" stop-color="#FED032"/>
<stop offset="1" stop-color="#F49A22"/>
</linearGradient>
<clipPath id="clip0_229_197">
<rect width="461" height="192" fill="white"/>
</clipPath>
<clipPath id="clip1_229_197">
<rect width="461" height="192" fill="white"/>
</clipPath>
</defs>
</svg>
